<?xml version="1.0" encoding="UTF-8"?>
<svg width="18px" height="18px" viewBox="0 0 18 18" version="1.1" xmlns="http://www.w3.org/2000/svg" xmlns:xlink="http://www.w3.org/1999/xlink">
    <!-- Generator: Sketch 52 (66869) - http://www.bohemiancoding.com/sketch -->
    <title>data</title>
    <desc>Created with Sketch.</desc>
    <g id="后台2019-8-22" stroke="none" stroke-width="1" fill="none" fill-rule="evenodd">
        <g id="布局19-8-21" transform="translate(-1040.000000, -136.000000)" fill="#9B9B9B" fill-rule="nonzero">
            <g id="data" transform="translate(1040.000000, 136.000000)">
                <path d="M16.4209553,2.63604465 L15.1587057,2.63604465 L15.1587057,3.2893142 C15.1587057,4.19082617 14.4518459,4.92248805 13.5808937,4.92248805 C12.7099414,4.92248805 12.0030817,4.19082617 12.0030817,3.2893142 L12.0030817,2.63604465 L6.00739599,2.63604465 L6.00739599,3.2893142 C6.00739599,4.19082617 5.30053622,4.92248805 4.42958397,4.92248805 C3.55863173,4.92248805 2.85177195,4.19082617 2.85177195,3.2893142 L2.85177195,2.63604465 L1.58952234,2.63604465 C0.718570096,2.63604465 0.0117103174,3.36770653 0.0117103174,4.2692185 L0.0117103174,16.3547049 C0.0117103174,17.2562169 0.718570096,17.9878788 1.58952234,17.9878788 L16.4209553,17.9878788 C17.2919076,17.9878788 17.9987673,17.2562169 17.9987673,16.3547049 L17.9987673,4.2692185 C17.9987673,3.36770653 17.2919075,2.63604465 16.4209553,2.63604465 Z M16.7365177,16.3547049 C16.7365177,16.5343541 16.5945146,16.6813397 16.4209553,16.6813397 L1.58952234,16.6813397 C1.41596301,16.6813397 1.27395993,16.5343541 1.27395993,16.3547049 L1.27395993,6.88229664 C1.27395993,6.70264751 1.41596301,6.55566187 1.58952234,6.55566187 L16.4209553,6.55566187 C16.5945147,6.55566187 16.7365177,6.70264751 16.7365177,6.88229664 L16.7365177,16.3547049 Z M5.37627117,11.1285486 L3.16733436,11.1285486 C2.81863792,11.1285486 2.53620954,10.8362105 2.53620954,10.4752791 L2.53620954,8.18883571 C2.53620954,7.82790431 2.81863789,7.53556616 3.16733436,7.53556616 L5.37627117,7.53556616 C5.72496762,7.53556616 6.00739599,7.82790428 6.00739599,8.18883571 L6.00739599,10.4752791 C6.00739599,10.8362105 5.72496765,11.1285486 5.37627117,11.1285486 Z M5.37627117,15.7014354 L3.16733436,15.7014354 C2.81863792,15.7014354 2.53620954,15.4090973 2.53620954,15.0481658 L2.53620954,12.7617225 C2.53620954,12.4007911 2.81863789,12.1084529 3.16733436,12.1084529 L5.37627117,12.1084529 C5.72496762,12.1084529 6.00739599,12.400791 6.00739599,12.7617225 L6.00739599,15.0481658 C6.00739599,15.4090973 5.72496765,15.7014354 5.37627117,15.7014354 Z M10.1097072,11.1285486 L7.90077043,11.1285486 C7.55207398,11.1285486 7.26964561,10.8362105 7.26964561,10.4752791 L7.26964561,8.18883571 C7.26964561,7.82790431 7.55207395,7.53556616 7.90077043,7.53556616 L10.1097072,7.53556616 C10.4584037,7.53556616 10.7408321,7.82790428 10.7408321,8.18883571 L10.7408321,10.4752791 C10.7408321,10.8362105 10.4584037,11.1285486 10.1097072,11.1285486 Z M10.1097072,15.7014354 L7.90077043,15.7014354 C7.55207398,15.7014354 7.26964561,15.4090973 7.26964561,15.0481658 L7.26964561,12.7617225 C7.26964561,12.4007911 7.55207395,12.1084529 7.90077043,12.1084529 L10.1097072,12.1084529 C10.4584037,12.1084529 10.7408321,12.400791 10.7408321,12.7617225 L10.7408321,15.0481658 C10.7408321,15.4090973 10.4584037,15.7014354 10.1097072,15.7014354 Z M14.8431433,11.1285486 L12.6342065,11.1285486 C12.28551,11.1285486 12.0030817,10.8362105 12.0030817,10.4752791 L12.0030817,8.18883571 C12.0030817,7.82790431 12.28551,7.53556616 12.6342065,7.53556616 L14.8431433,7.53556616 C15.1918397,7.53556616 15.4742681,7.82790428 15.4742681,8.18883571 L15.4742681,10.4752791 C15.4742681,10.8362105 15.1918397,11.1285486 14.8431433,11.1285486 Z M14.8431433,15.7014354 L12.6342065,15.7014354 C12.28551,15.7014354 12.0030817,15.4090973 12.0030817,15.0481658 L12.0030817,12.7617225 C12.0030817,12.4007911 12.28551,12.1084529 12.6342065,12.1084529 L14.8431433,12.1084529 C15.1918397,12.1084529 15.4742681,12.400791 15.4742681,12.7617225 L15.4742681,15.0481658 C15.4742681,15.4090973 15.1918397,15.7014354 14.8431433,15.7014354 Z M5.37627117,1.0028708 L5.37627117,3.28931417 C5.37627117,3.83152789 4.95341756,4.26921847 4.42958397,4.26921847 C3.90575039,4.26921847 3.48289677,3.83152789 3.48289677,3.28931417 L3.48289677,1.0028708 C3.48289677,0.460657091 3.90575039,0.0229665072 4.42958397,0.0229665072 C4.95341756,0.0229665072 5.37627117,0.460657091 5.37627117,1.0028708 Z M14.5275809,1.0028708 L14.5275809,3.28931417 C14.5275809,3.83152789 14.1047273,4.26921847 13.5808937,4.26921847 C13.0570601,4.26921847 12.6342065,3.83152789 12.6342065,3.28931417 L12.6342065,1.0028708 C12.6342065,0.460657091 13.0570601,0.0229665072 13.5808937,0.0229665072 C14.1047273,0.0229665072 14.5275809,0.460657091 14.5275809,1.0028708 Z" id="Shape"></path>
            </g>
        </g>
    </g>
</svg>