<svg id="图层_1" data-name="图层 1" xmlns="http://www.w3.org/2000/svg" xmlns:xlink="http://www.w3.org/1999/xlink" viewBox="0 0 36 36"><defs><style>.cls-1{fill:url(#未命名的渐变);}.cls-2{fill:#fff;}</style><linearGradient id="未命名的渐变" x1="-0.47" y1="37.97" x2="-0.47" y2="38.97" gradientTransform="matrix(36, 0, 0, -36, 35, 1403)" gradientUnits="userSpaceOnUse"><stop offset="0" stop-color="#425bdd"/><stop offset="1" stop-color="#5f7bf1"/></linearGradient></defs><title>logo</title><g id="后台Web"><g id="资源-1-copy"><rect id="Rectangle-path" class="cls-1" width="36" height="36" rx="3.93" ry="3.93"/><path id="Shape" class="cls-2" d="M24.55,11.24a.35.35,0,1,0,0,.7.35.35,0,0,0,.35-.35.36.36,0,0,0-.11-.25A.35.35,0,0,0,24.55,11.24Z"/><path id="Shape-2" data-name="Shape" class="cls-2" d="M19.12,4.34H12.33a7,7,0,0,0-7,7V27.46h13.8a11.56,11.56,0,0,0,0-23.12Zm-2.73,2.8a12.64,12.64,0,0,0,4.31,5.38l-.35.6A23.59,23.59,0,0,0,18.1,12,22.66,22.66,0,0,1,14,9.74a7.55,7.55,0,0,1,2.36-2.6Zm9,9.22c0,2.26-.52,5.45-4.72,7A12.5,12.5,0,0,1,16.5,24a31.05,31.05,0,0,1-7.66-1.14,18.92,18.92,0,0,0,3-2,13.61,13.61,0,0,0,5.18,1h0s-5.43-.77-7.49-5.5a7.91,7.91,0,0,1,1.35-8.42c1.66,2.61,4.5,3.94,6.8,5,.9.42,1.74.83,2.43,1.23a6.78,6.78,0,0,1,3.15,4.63,5.88,5.88,0,0,0-2-5.07l.41-.7a14.44,14.44,0,0,1,1.28-2,1.79,1.79,0,0,1,1.64-.84,2.29,2.29,0,0,1,1.55.8c.65.65,1.09,1.11,1.09,1.11C25.33,12.36,25.38,14.07,25.38,16.36Z"/><path id="Shape-3" data-name="Shape" class="cls-2" d="M5.32,27.44v4.22H5.4a6.25,6.25,0,0,0,6.12-4.22Z"/></g></g></svg>