<svg id="图层_1" data-name="图层 1" xmlns="http://www.w3.org/2000/svg" viewBox="0 0 14 14"><defs><style>.cls-1{fill:#ccc;}</style></defs><title>P</title><g id="后台Web"><path id="Shape-Copy" class="cls-1" d="M9.17,3.76A3.78,3.78,0,0,0,5.37,0H0V14H1.93V7.52H5.07a1.48,1.48,0,0,0,.3,0A3.79,3.79,0,0,0,9.17,3.76ZM5.07,5.58H1.93V1.94H5.07a1.91,1.91,0,0,1,1.76,1.8A1.94,1.94,0,0,1,5.07,5.58Zm8.8,5a1.08,1.08,0,0,0-.23-.26L13,8.48a1,1,0,0,0-.75-.54H8.56a.93.93,0,0,0-.75.54l-.69,1.86a1.08,1.08,0,0,0-.23.26c-.06.12-.13.23-.13,1.06s.16,1.09.35,1.19l.15.09v.74c0,.25.06.32.29.32h.51c.23,0,.39,0,.39-.24V13h3.86v.73c0,.24.15.24.38.24h.52c.23,0,.29-.07.29-.32v-.74l.15-.09c.19-.1.35-.39.35-1.19s-.07-.94-.13-1.06ZM8,10.12c0-.11.22-.93.3-1.22a.68.68,0,0,1,.53-.38h3a.65.65,0,0,1,.53.38c.09.29.28,1.11.31,1.22s-.08.11-.08.11H8.12A.07.07,0,0,1,8,10.12Zm.07,2a.56.56,0,1,1,.56-.55.55.55,0,0,1-.56.55Zm4.55,0a.56.56,0,1,1,.56-.55.56.56,0,0,1-.56.55Z"/></g></svg>